<svg xmlns="http://www.w3.org/2000/svg" width="48" height="48" fill="none"><g clip-path="url(#a)"><path fill="#575757" d="M24 14.8c-5.073 0-9.2 4.127-9.2 9.2a9.19 9.19 0 0 0 1.185 4.516l-1.17 4.176a.4.4 0 0 0 .481.496l4.358-1.08A9.206 9.206 0 0 0 24 33.2c5.073 0 9.2-4.127 9.2-9.2 0-5.073-4.127-9.2-9.2-9.2Zm4.628 12.446c-.197.545-1.14 1.042-1.594 1.11-.407.059-.923.084-1.488-.093a13.842 13.842 0 0 1-1.347-.492c-2.369-1.01-3.916-3.366-4.035-3.521-.117-.156-.964-1.265-.964-2.413 0-1.147.61-1.712.827-1.945a.873.873 0 0 1 .63-.292c.157 0 .315.002.453.008.145.008.34-.055.531.4.197.468.67 1.616.728 1.733.06.117.098.253.02.409-.078.155-.118.252-.236.389-.118.136-.248.304-.354.409-.119.116-.242.242-.104.476.137.233.611.997 1.314 1.615.902.794 1.663 1.04 1.9 1.158.235.117.373.097.51-.059.138-.156.591-.68.748-.914.157-.233.315-.195.532-.117.217.078 1.378.642 1.614.759.236.116.393.175.453.272.059.097.059.564-.138 1.108Z"/></g><rect width="46" height="46" x="1" y="1" stroke="#E7E7E7" stroke-width="2" rx="23"/><defs><clipPath id="a"><path fill="#fff" d="M14 14h20v20H14z"/></clipPath></defs></svg>